<svg height="1449" width="801" xmlns:xlink="http://www.w3.org/1999/xlink" viewBox="0 0 801 1449" xmlns="http://www.w3.org/2000/svg"><defs/><g transform="translate(-642.82,-761.45)"><path fill-rule="nonzero" transform="translate(774.810000,1881.790000)" id="shape1" d="M584.0,329.0L584.0,.0L.0,.0L.0,329.0L584.0,329.0z" fill="#4ed7c5" fill-opacity="0.37"/><path fill-rule="nonzero" transform="translate(1010.000000,948.000000)" id="shape2" d="M349.0,900.0L349.0,.0L.0,.0L.0,900.0L349.0,900.0z" fill="#7991ff" fill-opacity="0.38"/><path fill-rule="nonzero" transform="translate(642.815000,1096.260000)" id="shape3" d="M349.0,643.0L349.0,.0L.0,.0L.0,643.0L349.0,643.0z" fill="#ffc0be" fill-opacity="0.60"/><g transform="translate(1091.120000,803.000000)" id="shape4"><path fill-rule="nonzero" d="M107.0,104.0L107.0,.0L.0,.0L.0,104.0L107.0,104.0z" fill="#d0f0ea" fill-opacity="0.76"/><text xml:space="preserve" style="fill:#191919;font-family:Futura;font-size:14.00pt;font-weight:bold"><tspan x="15.0" y="48.0">Feature </tspan><tspan x="25.8" y="74.0">Maps</tspan></text></g><g transform="translate(1106.120000,1063.290000)" id="shape5"><path fill-rule="nonzero" d="M22.0,44.0L55.0,44.0L55.0,44.0C67.2,44.0,77.0,34.2,77.0,22.0C77.0,9.8,67.2,.0,55.0,.0L22.0,.0L22.0,.0C9.8,.0,.0,9.8,.0,22.0C.0,34.2,9.8,44.0,22.0,44.0z" fill="#21675e"/><text xml:space="preserve" style="fill:#ffffff;font-family:Futura;font-size:14.00pt"><tspan x="18.7" y="31.0">GAP</tspan></text></g><g transform="translate(1096.639000,1226.760000)" id="shape6"><path fill-rule="nonzero" d="M22.0,44.0L71.1,44.0L71.1,44.0C83.2,44.0,93.1,34.2,93.1,22.0C93.1,9.8,83.2,.0,71.1,.0L22.0,.0L22.0,.0C9.8,.0,.0,9.8,.0,22.0C.0,34.2,9.8,44.0,22.0,44.0z" fill="#415b7c"/><text xml:space="preserve" style="fill:#ffffff;font-family:Futura;font-size:14.00pt"><tspan x="18.3" y="31.0">Gemm</tspan></text></g><g transform="translate(1104.330000,981.550000)" id="shape7"><path fill-rule="nonzero" d="M22.0,44.0L56.0,44.0L56.0,44.0C68.2,44.0,78.0,34.2,78.0,22.0C78.0,9.8,68.2,.0,56.0,.0L22.0,.0L22.0,.0C9.8,.0,.0,9.8,.0,22.0C.0,34.2,9.8,44.0,22.0,44.0z" fill="#7c3a37"/><text xml:space="preserve" style="fill:#ffffff;font-family:Futura;font-size:14.00pt"><tspan x="18.8" y="31.0">ReLu</tspan></text></g><g transform="translate(1092.830000,1472.070000)" id="shape8"><path fill-rule="nonzero" stroke="#7b4906" stroke-width="1" d="M22.0,44.0L85.0,44.0L85.0,44.0C97.2,44.0,107.0,34.2,107.0,22.0C107.0,9.8,97.2,.0,85.0,.0L22.0,.0L22.0,.0C9.8,.0,.0,9.8,.0,22.0C.0,34.2,9.8,44.0,22.0,44.0z" fill="#80005e"/><text xml:space="preserve" style="fill:#ffffff;font-family:Futura;font-size:14.00pt"><tspan x="18.7" y="31.0">Sigmoid</tspan></text></g><g transform="translate(1085.519000,1145.020000)" id="shape9"><path fill-rule="nonzero" d="M22.0,44.0L93.6,44.0L93.6,44.0C105.8,44.0,115.6,34.2,115.6,22.0C115.6,9.8,105.8,.0,93.6,.0L22.0,.0L22.0,.0C9.8,.0,.0,9.8,.0,22.0C.0,34.2,9.8,44.0,22.0,44.0z" fill="#7c6124"/><text xml:space="preserve" style="fill:#ffffff;font-family:Futura;font-size:14.00pt"><tspan x="21.3" y="31.0">Reshape</tspan></text></g><g transform="translate(1097.330000,1635.640000)" id="shape10"><path fill-rule="nonzero" d="M22.0,44.0L75.0,44.0L75.0,44.0C87.2,44.0,97.0,34.2,97.0,22.0C97.0,9.8,87.2,.0,75.0,.0L22.0,.0L22.0,.0C9.8,.0,.0,9.8,.0,22.0C.0,34.2,9.8,44.0,22.0,44.0z" fill="#454545"/><text xml:space="preserve" style="fill:#ffffff;font-family:Futura;font-size:14.00pt"><tspan x="15.5" y="31.0">Expand</tspan></text></g><g transform="translate(1258.000000,1635.640000)" id="shape11"><path fill-rule="nonzero" d="M22.0,44.0L62.0,44.0L62.0,44.0C74.2,44.0,84.0,34.2,84.0,22.0C84.0,9.8,74.2,.0,62.0,.0L22.0,.0L22.0,.0C9.8,.0,.0,9.8,.0,22.0C.0,34.2,9.8,44.0,22.0,44.0z" fill="#454545"/><text xml:space="preserve" style="fill:#ffffff;font-family:Futura;font-size:14.00pt"><tspan x="16.3" y="31.0">shape</tspan></text></g><g transform="translate(1109.121100,2007.877600)" id="shape12"><path fill-rule="nonzero" d="M20.1,40.2L51.4,40.2L51.4,40.2C62.5,40.2,71.5,31.2,71.5,20.1C71.5,9.0,62.5,.0,51.4,.0L20.1,.0L20.1,.0C9.0,.0,.0,9.0,.0,20.1C.0,31.2,9.0,40.2,20.1,40.2z" fill="#454545"/><text xml:space="preserve" style="fill:#ffffff;font-family:Futura;font-size:14.00pt"><tspan x="17.3" y="29.1">Add</tspan></text></g><g transform="translate(768.833800,1391.599100)" id="shape13"><path fill-rule="nonzero" d="M21.8,43.6L70.4,43.6L70.4,43.6C82.4,43.6,92.1,33.8,92.1,21.8C92.1,9.8,82.4,.0,70.4,.0L21.8,.0L21.8,.0C9.8,.0,.0,9.8,.0,21.8C.0,33.8,9.8,43.6,21.8,43.6z" fill="#37437c"/><text xml:space="preserve" style="fill:#ffffff;font-family:Futura;font-size:14.00pt"><tspan x="23.9" y="30.8">Conv</tspan></text></g><g transform="translate(1090.588700,1717.418500)" id="shape14"><path fill-rule="nonzero" d="M112.2,103.9L112.2,.0L.0,.0L.0,103.9L112.2,103.9z" fill="#467dfe" fill-opacity="0.75"/><text xml:space="preserve" style="fill:#191919;font-family:Futura;font-size:14.00pt;font-weight:bold"><tspan x="44.6" y="35.0">SE </tspan><tspan x="5.8" y="61.0">Attention </tspan><tspan x="15.2" y="87.0">Weights</tspan></text></g><g transform="translate(758.781700,1575.758500)" id="shape15"><path fill-rule="nonzero" d="M112.2,103.9L112.2,.0L.0,.0L.0,103.9L112.2,103.9z" fill="#4ed7c5" fill-opacity="0.64"/><text xml:space="preserve" style="fill:#000000;font-family:Futura;font-size:14.00pt;font-weight:bold"><tspan x="20.6" y="34.9">Spatial </tspan><tspan x="9.1" y="60.9">Attention </tspan><tspan x="15.2" y="86.9">Weights</tspan></text></g><g transform="translate(677.812400,1156.687000)" id="shape16"><path fill-rule="nonzero" d="M31.4,62.8L95.1,62.8L95.1,62.8C112.4,62.8,126.5,48.8,126.5,31.4C126.5,14.1,112.4,.0,95.1,.0L31.4,.0L31.4,.0C14.1,.0,.0,14.1,.0,31.4C.0,48.8,14.1,62.8,31.4,62.8z" fill="#454545"/><text xml:space="preserve" style="fill:#ffffff;font-family:Futura;font-size:14.00pt"><tspan x="38.0" y="27.4">Mean</tspan><tspan x="31.8" y="53.4">Reduce</tspan></text></g><g transform="translate(840.308400,1156.687000)" id="shape17"><path fill-rule="nonzero" d="M31.4,62.8L95.1,62.8L95.1,62.8C112.4,62.8,126.5,48.8,126.5,31.4C126.5,14.1,112.4,.0,95.1,.0L31.4,.0L31.4,.0C14.1,.0,.0,14.1,.0,31.4C.0,48.8,14.1,62.8,31.4,62.8z" fill="#454545"/><text xml:space="preserve" style="fill:#ffffff;font-family:Futura;font-size:14.00pt"><tspan x="43.1" y="27.4">Max</tspan><tspan x="31.8" y="53.4">Reduce</tspan></text></g><g transform="translate(761.443700,1306.009100)" id="shape18"><path fill-rule="nonzero" d="M21.8,43.6L85.1,43.6L85.1,43.6C97.2,43.6,106.9,33.8,106.9,21.8C106.9,9.8,97.2,.0,85.1,.0L21.8,.0L21.8,.0C9.8,.0,.0,9.8,.0,21.8C.0,33.8,9.8,43.6,21.8,43.6z" fill="#7030a0"/><text xml:space="preserve" style="fill:#ffffff;font-family:Futura;font-size:14.00pt"><tspan x="23.1" y="30.8">Concat</tspan></text></g><g transform="translate(1105.120000,1308.500000)" id="shape19"><path fill-rule="nonzero" d="M22.0,44.0L56.0,44.0L56.0,44.0C68.2,44.0,78.0,34.2,78.0,22.0C78.0,9.8,68.2,.0,56.0,.0L22.0,.0L22.0,.0C9.8,.0,.0,9.8,.0,22.0C.0,34.2,9.8,44.0,22.0,44.0z" fill="#7c3a37"/><text xml:space="preserve" style="fill:#ffffff;font-family:Futura;font-size:14.00pt"><tspan x="18.8" y="31.0">ReLu</tspan></text></g><g transform="translate(1098.929000,1390.290000)" id="shape20"><path fill-rule="nonzero" d="M22.0,44.0L71.1,44.0L71.1,44.0C83.2,44.0,93.1,34.2,93.1,22.0C93.1,9.8,83.2,.0,71.1,.0L22.0,.0L22.0,.0C9.8,.0,.0,9.8,.0,22.0C.0,34.2,9.8,44.0,22.0,44.0z" fill="#415b7c"/><text xml:space="preserve" style="fill:#ffffff;font-family:Futura;font-size:14.00pt"><tspan x="18.3" y="31.0">Gemm</tspan></text></g><g transform="translate(1088.519000,1553.850000)" id="shape21"><path fill-rule="nonzero" d="M22.0,44.0L91.1,44.0L91.1,44.0C103.3,44.0,113.1,34.2,113.1,22.0C113.1,9.8,103.3,.0,91.1,.0L22.0,.0L22.0,.0C9.8,.0,.0,9.8,.0,22.0C.0,34.2,9.8,44.0,22.0,44.0z" fill="#7c6124"/><text xml:space="preserve" style="fill:#ffffff;font-family:Futura;font-size:14.00pt"><tspan x="20.0" y="31.0">Reshape</tspan></text></g><g transform="translate(1109.120000,1926.090000)" id="shape22"><path fill-rule="nonzero" stroke="#415b7c" stroke-width="1" d="M22.0,44.0L50.0,44.0L50.0,44.0C62.2,44.0,72.0,34.2,72.0,22.0C72.0,9.8,62.2,.0,50.0,.0L22.0,.0L22.0,.0C9.8,.0,.0,9.8,.0,22.0C.0,34.2,9.8,44.0,22.0,44.0z" fill="#454545"/><text xml:space="preserve" style="fill:#ffffff;font-family:Futura;font-size:14.00pt"><tspan x="19.3" y="31.0">Mul</tspan></text></g><g transform="translate(761.443700,1477.189100)" id="shape23"><path fill-rule="nonzero" stroke="#7b4906" stroke-width="1" d="M21.8,43.6L85.1,43.6L85.1,43.6C97.2,43.6,106.9,33.8,106.9,21.8C106.9,9.8,97.2,.0,85.1,.0L21.8,.0L21.8,.0C9.8,.0,.0,9.8,.0,21.8C.0,33.8,9.8,43.6,21.8,43.6z" fill="#80005e"/><text xml:space="preserve" style="fill:#ffffff;font-family:Futura;font-size:14.00pt"><tspan x="18.6" y="30.8">Sigmoid</tspan></text></g><g transform="translate(1144.620000,907.000000)" id="shape24"><path stroke="#191919" stroke-width="2.666670083999634" d="M.0,.0C.0,4.1,.0,8.2,.0,18.5C.0,28.8,.0,45.2,.0,55.5C.0,59.3,.0,62.3,.0,64.7" fill="none"/><path stroke="#191919" stroke-linecap="round" stroke-width="1" d="M4.9,64.2L.0,74.0L-4.9,64.2L4.9,64.2" fill="#191919"/></g><g transform="translate(1143.330000,1025.550000)" id="shape25"><path stroke="#191919" stroke-width="2.666670083999634" d="M.0,.0L.0,28.2" fill="none"/><path stroke="#191919" stroke-linecap="round" stroke-width="1" d="M4.9,28.2L.0,38.0L-4.9,28.2L4.9,28.2" fill="#191919"/></g><g transform="translate(1144.620000,1107.290000)" id="shape26"><path stroke="#191919" stroke-width="2.666670083999634" d="M.0,.0L.0,28.2" fill="none"/><path stroke="#191919" stroke-linecap="round" stroke-width="1" d="M4.9,28.2L.0,38.0L-4.9,28.2L4.9,28.2" fill="#191919"/></g><g transform="translate(1143.320000,1189.020000)" id="shape27"><path stroke="#191919" stroke-width="2.666670083999634" d="M.0,.0L.0,27.2" fill="none"/><path stroke="#191919" stroke-linecap="round" stroke-width="1" d="M4.9,27.2L.0,37.0L-4.9,27.2L4.9,27.2" fill="#191919"/></g><g transform="translate(1143.180000,1270.760000)" id="shape28"><path stroke="#191919" stroke-width="2.666670083999634" d="M.0,.0L.0,28.2" fill="none"/><path stroke="#191919" stroke-linecap="round" stroke-width="1" d="M4.9,28.2L.0,38.0L-4.9,28.2L4.9,28.2" fill="#191919"/></g><g transform="translate(1144.120000,1352.500000)" id="shape29"><path stroke="#191919" stroke-width="2.666670083999634" d="M.0,.0L.0,28.2" fill="none"/><path stroke="#191919" stroke-linecap="round" stroke-width="1" d="M4.9,28.2L.0,38.0L-4.9,28.2L4.9,28.2" fill="#191919"/></g><g transform="translate(1145.470000,1434.290000)" id="shape30"><path stroke="#191919" stroke-width="2.666670083999634" d="M.0,.0L.0,28.2" fill="none"/><path stroke="#191919" stroke-linecap="round" stroke-width="1" d="M4.9,28.2L.0,38.0L-4.9,28.2L4.9,28.2" fill="#191919"/></g><g transform="translate(1146.330000,1516.070000)" id="shape31"><path stroke="#191919" stroke-width="2.666670083999634" d="M.0,.0L.0,27.2" fill="none"/><path stroke="#191919" stroke-linecap="round" stroke-width="1" d="M4.9,27.2L.0,37.0L-4.9,27.2L4.9,27.2" fill="#191919"/></g><g transform="translate(1182.330000,1003.550000)" id="shape32"><path stroke="#191919" stroke-width="2.666670083999634" d="M.0,.0L118.0,.0L118.0,622.2" fill="none"/><path stroke="#191919" stroke-linecap="round" stroke-width="1" d="M122.9,622.2L118.0,632.0L113.1,622.2L122.9,622.2" fill="#191919"/></g><g transform="translate(1258.000000,1657.640000)" id="shape33"><path stroke="#191919" stroke-width="2.666670083999634" d="M.0,.0L-53.9,.0" fill="none"/><path stroke="#191919" stroke-linecap="round" stroke-width="1" d="M-53.9,4.9L-63.7,.0L-53.9,-4.9L-53.9,4.9" fill="#191919"/></g><g transform="translate(1145.070000,1597.850000)" id="shape34"><path stroke="#191919" stroke-width="2.666670083999634" d="M.0,.0L.0,28.2" fill="none"/><path stroke="#191919" stroke-linecap="round" stroke-width="1" d="M4.9,28.2L.0,38.0L-4.9,28.2L4.9,28.2" fill="#191919"/></g><g transform="translate(1145.830000,1679.640000)" id="shape35"><path stroke="#191919" stroke-width="2.666670083999634" d="M.0,.0L.0,28.2" fill="none"/><path stroke="#191919" stroke-linecap="round" stroke-width="1" d="M4.9,28.2L.0,38.0L-4.9,28.2L4.9,28.2" fill="#191919"/></g><g transform="translate(814.903000,1679.641500)" id="shape36"><path stroke="#191919" stroke-width="2.666670083999634" d="M.0,.0L.0,268.0L285.2,268.0" fill="none"/><path stroke="#191919" stroke-linecap="round" stroke-width="1" d="M285.2,263.1L295.0,268.0L285.2,272.9L285.2,263.1" fill="#191919"/></g><g transform="translate(1146.710000,1821.301500)" id="shape37"><path stroke="#191919" stroke-width="2.666670083999634" d="M.0,.0L.0,94.2" fill="none"/><path stroke="#191919" stroke-linecap="round" stroke-width="1" d="M4.9,94.2L.0,104.0L-4.9,94.2L4.9,94.2" fill="#191919"/></g><g transform="translate(1145.120000,1970.090000)" id="shape38"><path stroke="#191919" stroke-width="2.666670083999634" d="M.0,.0L.0,27.2" fill="none"/><path stroke="#191919" stroke-linecap="round" stroke-width="1" d="M4.9,27.2L.0,37.0L-4.9,27.2L4.9,27.2" fill="#191919"/></g><g transform="translate(1104.330000,1003.550000)" id="shape39"><path stroke="#191919" stroke-width="2.666670083999634" d="M.0,.0L-363.0,.0L-363.0,143.2" fill="none"/><path stroke="#191919" stroke-linecap="round" stroke-width="1" d="M-358.1,143.2L-363.0,153.0L-367.9,143.2L-358.1,143.2" fill="#191919"/></g><g transform="translate(1104.330000,1003.550000)" id="shape40"><path stroke="#191919" stroke-width="2.666670083999634" d="M.0,.0L-201.0,.0L-201.0,143.2" fill="none"/><path stroke="#191919" stroke-linecap="round" stroke-width="1" d="M-196.1,143.2L-201.0,153.0L-205.9,143.2L-196.1,143.2" fill="#191919"/></g><g transform="translate(741.067000,1219.513100)" id="shape41"><path stroke="#191919" stroke-width="2.666670083999634" d="M.0,.0L.0,29.8L73.8,29.8L73.8,76.7" fill="none"/><path stroke="#191919" stroke-linecap="round" stroke-width="1" d="M78.7,76.7L73.8,86.5L68.9,76.7L78.7,76.7" fill="#191919"/></g><g transform="translate(903.563000,1219.513100)" id="shape42"><path stroke="#191919" stroke-width="2.666670083999634" d="M.0,.0L.0,29.8L-88.7,29.8L-88.7,76.7" fill="none"/><path stroke="#191919" stroke-linecap="round" stroke-width="1" d="M-83.8,76.7L-88.7,86.5L-93.6,76.7L-83.8,76.7" fill="#191919"/></g><g transform="translate(814.903000,1349.570900)" id="shape43"><path stroke="#191919" stroke-width="2.666670083999634" d="M.0,.0L.0,32.2" fill="none"/><path stroke="#191919" stroke-linecap="round" stroke-width="1" d="M4.9,32.2L.0,42.0L-4.9,32.2L4.9,32.2" fill="#191919"/></g><g transform="translate(814.903000,1435.160900)" id="shape44"><path stroke="#191919" stroke-width="2.666670083999634" d="M.0,.0L.0,31.2" fill="none"/><path stroke="#191919" stroke-linecap="round" stroke-width="1" d="M4.9,31.2L.0,41.0L-4.9,31.2L4.9,31.2" fill="#191919"/></g><g transform="translate(814.903000,1520.750900)" id="shape45"><path stroke="#191919" stroke-width="2.666670083999634" d="M.0,.0L.0,45.2" fill="none"/><path stroke="#191919" stroke-linecap="round" stroke-width="1" d="M4.9,45.2L.0,55.0L-4.9,45.2L4.9,45.2" fill="#191919"/></g><g transform="translate(1088.880000,2085.820000)" id="shape46"><path fill-rule="nonzero" d="M112.0,104.0L112.0,.0L.0,.0L.0,104.0L112.0,104.0z" fill="#ff7e79" fill-opacity="0.69"/><text xml:space="preserve" style="fill:#191919;font-family:Futura;font-size:14.00pt;font-weight:bold"><tspan x="30.8" y="35.0">SESA </tspan><tspan x="17.5" y="61.0">Feature </tspan><tspan x="28.3" y="87.0">Maps</tspan></text></g><g transform="translate(1144.880000,2048.042300)" id="shape47"><path stroke="#191919" stroke-width="2.666670083999634" d="M.0,.0L.0,26.2" fill="none"/><path stroke="#191919" stroke-linecap="round" stroke-width="1" d="M4.9,26.2L.0,36.0L-4.9,26.2L4.9,26.2" fill="#191919"/></g><g transform="translate(1198.120000,855.000000)" id="shape48"><path stroke="#191919" stroke-width="2.666670083999634" d="M.0,.0L201.1,.0L201.1,1093.1L-7.2,1093.1" fill="none"/><path stroke="#191919" stroke-linecap="round" stroke-width="1" d="M-7.2,1098.0L-17.0,1093.1L-7.2,1088.2L-7.2,1098.0" fill="#191919"/></g><g transform="translate(1144.620000,803.000000)" id="shape49"><path stroke="#191919" stroke-width="2.666670083999634" d="M.0,.0L.0,-34.3L292.3,-34.3L292.3,1225.0L45.8,1225.0" fill="none"/><path stroke="#191919" stroke-linecap="round" stroke-width="1" d="M45.8,1229.9L36.0,1225.0L45.8,1220.1L45.8,1229.9" fill="#191919"/></g><g transform="translate(753.814500,1063.290000)" id="shape50"><path fill-rule="nonzero" d="M134.7,63.0L134.7,.0L.0,.0L.0,63.0L134.7,63.0z" fill="#e08a13" fill-opacity="0.44"/><text xml:space="preserve" style="fill:#191919;font-family:Futura;font-size:20.00pt;font-weight:bold"><tspan x="8.1" y="44.0">（C-SA）</tspan></text></g><g transform="translate(1207.520000,913.500000)" id="shape51"><path fill-rule="nonzero" d="M134.5,63.0L134.5,.0L.0,.0L.0,63.0L134.5,63.0z" fill="#e08a13" fill-opacity="0.44"/><text xml:space="preserve" style="fill:#191919;font-family:Futura;font-size:20.00pt;font-weight:bold"><tspan x="11.0" y="44.0">（C-SE）</tspan></text></g><g transform="translate(840.815000,1842.500000)" id="shape52"><path fill-rule="nonzero" d="M151.0,75.0L151.0,.0L.0,.0L.0,75.0L151.0,75.0z" fill="#e08a13" fill-opacity="0.44"/><text xml:space="preserve" style="fill:#191919;font-family:Futura;font-size:20.00pt;font-weight:bold"><tspan x="9.7" y="50.0">（C-RES）</tspan></text></g><g transform="translate(1220.214531,1219.502169)" id="shape53"><path fill-rule="nonzero" d="M.0,27.6C.0,12.4,12.4,.0,27.6,.0C42.9,.0,55.3,12.4,55.3,27.6C55.3,42.9,42.9,55.3,27.6,55.3C12.4,55.3,.0,42.9,.0,27.6z" fill="#21675e"/><text xml:space="preserve" style="fill:#ffffff;font-family:Futura;font-size:14.00pt"><tspan x="13.8" y="36.6">W</tspan><tspan style="font-size:9.00pt" x="34.0">1</tspan></text></g><g transform="translate(1220.214531,1384.032150)" id="shape54"><path fill-rule="nonzero" d="M.0,27.6C.0,12.4,12.4,.0,27.6,.0C42.9,.0,55.3,12.4,55.3,27.6C55.3,42.9,42.9,55.3,27.6,55.3C12.4,55.3,.0,42.9,.0,27.6z" fill="#c00000"/><text xml:space="preserve" style="fill:#ffffff;font-family:Futura;font-size:14.00pt"><tspan x="13.6" y="36.6">W</tspan><tspan style="font-size:10.00pt" x="33.7">2</tspan></text></g><g transform="translate(1220.214531,1247.131085)" id="shape55"><path stroke="#191919" stroke-width="2.666666746139526" d="M.0,.0L-21.2,.0" fill="none"/><path stroke="#191919" stroke-linecap="round" stroke-width="1" d="M-21.2,4.9L-31.0,.0L-21.2,-4.9L-21.2,4.9" fill="#191919"/></g><g transform="translate(1220.214531,1411.661075)" id="shape56"><path stroke="#191919" stroke-width="2.666666746139526" d="M.0,.0L-17.2,.0" fill="none"/><path stroke="#191919" stroke-linecap="round" stroke-width="1" d="M-17.2,4.9L-27.0,.0L-17.2,-4.9L-17.2,4.9" fill="#191919"/></g></g></svg>